<svg width="89" height="185" viewBox="0 0 89 185" fill="none" xmlns="http://www.w3.org/2000/svg">
<g filter="url(#filter0_i_3_2)">
<path d="M43 2C43 4.17675 42.9426 6.36899 42.8319 8.57209C47.7019 34.2446 89.6539 121.5 87 121.5C84 121.5 105 180 43 184C-6.59999 187.2 -2 141.5 7 115.5C18.0998 99.0089 40.6653 51.7113 42.8319 8.57209C42.1968 5.22377 42.1924 2.92301 43 2Z" fill="#1877E7"/>
<path d="M43 2C43 4.17675 42.9426 6.36899 42.8319 8.57209C47.7019 34.2446 89.6539 121.5 87 121.5C84 121.5 105 180 43 184C-6.59999 187.2 -2 141.5 7 115.5C18.0998 99.0089 40.6653 51.7113 42.8319 8.57209C42.1968 5.22377 42.1924 2.92301 43 2Z" fill="#FF0505" fill-opacity="0.2"/>
</g>
<path d="M43 2C43 4.17675 42.9426 6.36899 42.8319 8.57209C47.7019 34.2446 89.6539 121.5 87 121.5C84 121.5 105 180 43 184C-6.59999 187.2 -2 141.5 7 115.5C18.0998 99.0089 40.6653 51.7113 42.8319 8.57209C42.1968 5.22377 42.1924 2.92301 43 2Z" stroke="#1495F2"/>
<defs>
<filter id="filter0_i_3_2" x="0.801109" y="0.669281" width="87.8064" height="187.99" filterUnits="userSpaceOnUse" color-interpolation-filters="sRGB">
<feFlood flood-opacity="0" result="BackgroundImageFix"/>
<feBlend mode="normal" in="SourceGraphic" in2="BackgroundImageFix" result="shape"/>
<feColorMatrix in="SourceAlpha" type="matrix" values="0 0 0 0 0 0 0 0 0 0 0 0 0 0 0 0 0 0 127 0" result="hardAlpha"/>
<feOffset dy="4"/>
<feGaussianBlur stdDeviation="2"/>
<feComposite in2="hardAlpha" operator="arithmetic" k2="-1" k3="1"/>
<feColorMatrix type="matrix" values="0 0 0 0 0 0 0 0 0 0 0 0 0 0 0 0 0 0 0.25 0"/>
<feBlend mode="normal" in2="shape" result="effect1_innerShadow_3_2"/>
</filter>
</defs>
</svg>
